<svg width="87" height="67" viewBox="0 0 87 67" fill="none" xmlns="http://www.w3.org/2000/svg">
<path d="M8.15625 0.875C3.65332 0.875 0 4.52832 0 9.03125C0 11.5971 1.20645 14.01 3.2625 15.5562L40.2375 43.2875C42.1746 44.7318 44.8254 44.7318 46.7625 43.2875L83.7375 15.5562C85.7936 14.01 87 11.5971 87 9.03125C87 4.52832 83.3467 0.875 78.8438 0.875H8.15625ZM0 19.9062V55.25C0 61.2482 4.87676 66.125 10.875 66.125H76.125C82.1232 66.125 87 61.2482 87 55.25V19.9062L50.025 47.6375C46.1508 50.5432 40.8492 50.5432 36.975 47.6375L0 19.9062Z" fill="#BB371A"/>
</svg>
