<svg width="74" height="74" viewBox="0 0 74 74" fill="none" xmlns="http://www.w3.org/2000/svg">
<path d="M36.7664 18.1332C26.332 18.1332 17.9156 26.5496 17.9156 36.984C17.9156 47.4184 26.332 55.8348 36.7664 55.8348C47.2008 55.8348 55.6172 47.4184 55.6172 36.984C55.6172 26.5496 47.2008 18.1332 36.7664 18.1332ZM36.7664 49.2395C30.0234 49.2395 24.5109 43.7434 24.5109 36.984C24.5109 30.2246 30.007 24.7285 36.7664 24.7285C43.5258 24.7285 49.0219 30.2246 49.0219 36.984C49.0219 43.7434 43.5094 49.2395 36.7664 49.2395ZM60.7852 17.3621C60.7852 19.8066 58.8164 21.759 56.3883 21.759C53.9437 21.759 51.9914 19.7902 51.9914 17.3621C51.9914 14.934 53.9602 12.9652 56.3883 12.9652C58.8164 12.9652 60.7852 14.934 60.7852 17.3621ZM73.2703 21.8246C72.9914 15.9348 71.6461 10.7176 67.3312 6.41914C63.0328 2.1207 57.8156 0.775391 51.9258 0.480078C45.8555 0.135547 27.6609 0.135547 21.5906 0.480078C15.7172 0.758984 10.5 2.1043 6.18515 6.40273C1.87031 10.7012 0.541405 15.9184 0.246092 21.8082C-0.098439 27.8785 -0.098439 46.073 0.246092 52.1434C0.524998 58.0332 1.87031 63.2504 6.18515 67.5488C10.5 71.8473 15.7008 73.1926 21.5906 73.4879C27.6609 73.8324 45.8555 73.8324 51.9258 73.4879C57.8156 73.209 63.0328 71.8637 67.3312 67.5488C71.6297 63.2504 72.975 58.0332 73.2703 52.1434C73.6148 46.073 73.6148 27.8949 73.2703 21.8246ZM65.4281 58.6566C64.1484 61.8723 61.6711 64.3496 58.4391 65.6457C53.5992 67.5652 42.1148 67.1223 36.7664 67.1223C31.418 67.1223 19.9172 67.5488 15.0937 65.6457C11.8781 64.366 9.40078 61.8887 8.10469 58.6566C6.18515 53.8168 6.62812 42.3324 6.62812 36.984C6.62812 31.6355 6.20156 20.1348 8.10469 15.3113C9.38437 12.0957 11.8617 9.61836 15.0937 8.32227C19.9336 6.40273 31.418 6.8457 36.7664 6.8457C42.1148 6.8457 53.6156 6.41914 58.4391 8.32227C61.6547 9.60195 64.132 12.0793 65.4281 15.3113C67.3476 20.1512 66.9047 31.6355 66.9047 36.984C66.9047 42.3324 67.3476 53.8332 65.4281 58.6566Z" fill="#BB371A"/>
</svg>
