<svg width="83" height="82" viewBox="0 0 83 82" fill="none" xmlns="http://www.w3.org/2000/svg">
<path d="M82.4897 41C82.4897 63.4766 64.0293 81.6875 41.2449 81.6875C36.9873 81.6875 32.8961 81.0477 29.0377 79.8664C30.7175 77.1594 33.2287 72.7297 34.1601 69.2023C34.659 67.2992 36.7212 59.5227 36.7212 59.5227C38.0683 62.0492 41.9933 64.1984 46.1676 64.1984C58.6076 64.1984 67.5717 52.9109 67.5717 38.8836C67.5717 25.4469 56.4456 15.3898 42.1429 15.3898C24.3478 15.3898 14.8847 27.1695 14.8847 40.0156C14.8847 45.9875 18.1112 53.4195 23.2501 55.782C24.0318 56.143 24.4476 55.9789 24.6305 55.2406C24.7636 54.6828 25.4621 51.9102 25.778 50.6305C25.8778 50.2203 25.8279 49.8594 25.4953 49.4656C23.8156 47.4148 22.4518 43.6742 22.4518 40.1797C22.4518 31.2055 29.3371 22.5266 41.0786 22.5266C51.2068 22.5266 58.3083 29.3352 58.3083 39.0805C58.3083 50.0891 52.6704 57.718 45.3361 57.718C41.2948 57.718 38.2513 54.4203 39.2325 50.368C40.3967 45.5281 42.6419 40.3109 42.6419 36.8164C42.6419 33.6992 40.9455 31.0906 37.4197 31.0906C33.2786 31.0906 29.9524 35.307 29.9524 40.9672C29.9524 44.5766 31.1831 47.0047 31.1831 47.0047C31.1831 47.0047 27.1085 64.0344 26.3601 67.2172C25.5286 70.7281 25.8612 75.6828 26.2105 78.8984C10.8767 72.9758 7.62939e-06 58.243 7.62939e-06 41C7.62939e-06 18.5234 18.4604 0.3125 41.2449 0.3125C64.0293 0.3125 82.4897 18.5234 82.4897 41Z" fill="#BB371A"/>
</svg>
