<svg width="92" height="64" viewBox="0 0 92 64" fill="none" xmlns="http://www.w3.org/2000/svg">
<path d="M89.4206 10.3602C88.3728 6.47187 85.2961 3.42031 81.3878 2.38672C74.303 0.5 45.8973 0.5 45.8973 0.5C45.8973 0.5 17.4915 0.5 10.4067 2.38672C6.49845 3.42031 3.42171 6.47187 2.37396 10.3602C0.478027 17.3984 0.478027 32.0656 0.478027 32.0656C0.478027 32.0656 0.478027 46.7328 2.37396 53.7711C3.42171 57.6594 6.49845 60.5797 10.4067 61.6133C17.4915 63.5 45.8973 63.5 45.8973 63.5C45.8973 63.5 74.303 63.5 81.3878 61.6133C85.2961 60.5797 88.3728 57.643 89.4206 53.7711C91.3165 46.7328 91.3165 32.0656 91.3165 32.0656C91.3165 32.0656 91.3165 17.3984 89.4206 10.3602ZM36.6172 45.3875V18.7437L60.3496 32.0656L36.6172 45.3875Z" fill="#BB371A"/>
</svg>
