<svg width="25" height="29" viewBox="0 0 25 29" fill="none" xmlns="http://www.w3.org/2000/svg">
<path d="M8.70816 0.490449C9.13455 0.0883982 9.796 0.0939057 10.2224 0.495956C11.7311 1.92241 13.147 3.45901 14.4699 5.12229C15.0712 4.3292 15.7545 3.46452 16.4925 2.75956C16.9243 2.352 17.5913 2.352 18.0231 2.76506C19.9145 4.58255 21.5162 6.98384 22.6423 9.26396C23.752 11.511 24.49 13.8077 24.49 15.4269C24.49 22.4545 19.0344 28.3917 12.245 28.3917C5.37905 28.3917 0 22.449 0 15.4214C0 13.3065 0.97304 10.7235 2.4818 8.16796C4.00696 5.57391 6.16077 2.86971 8.70816 0.490449ZM12.3379 23.1044C13.721 23.1044 14.9455 22.7189 16.0989 21.9478C18.4003 20.3286 19.018 17.0902 17.635 14.5457C17.389 14.05 16.7603 14.017 16.405 14.4355L15.0275 16.0493C14.6667 16.4678 14.0162 16.4568 13.6772 16.0217C12.7753 14.8651 11.1626 12.7998 10.2443 11.6267C9.89986 11.1861 9.24388 11.1806 8.89402 11.6212C7.04634 13.9619 6.11703 15.4379 6.11703 17.0957C6.1225 20.8683 8.88856 23.1044 12.3379 23.1044Z" fill="#BB371A"/>
</svg>
