<svg width="41" height="41" viewBox="0 0 41 41" fill="none" xmlns="http://www.w3.org/2000/svg">
<g clip-path="url(#clip0_523_1618)">
<path d="M17.8257 3.97501V10.508C17.8257 11.394 17.0875 12.1119 16.1769 12.1119C12.9279 12.1119 11.1605 15.3542 10.9156 21.7534L16.1769 21.7534C17.0875 21.7534 17.8257 22.472 17.8257 23.3577V37.1518C17.8257 38.0373 17.0875 38.7554 16.1769 38.7554H2.14921C1.23823 38.7554 0.500732 38.0368 0.500732 37.1518L0.500732 23.3577C0.500732 20.29 0.818186 17.4749 1.44399 14.9897C2.08581 12.4414 3.07102 10.2134 4.37138 8.36721C5.70943 6.46989 7.38315 4.98104 9.34643 3.94384C11.323 2.90035 13.6214 2.37109 16.1774 2.37109C17.0875 2.37109 17.8257 3.08899 17.8257 3.97501ZM39.09 12.112C40.0002 12.112 40.7389 11.3935 40.7389 10.5081V3.97513C40.7389 3.08911 40.0003 2.37121 39.09 2.37121C36.535 2.37121 34.2362 2.90057 32.2604 3.94395C30.2967 4.98115 28.6221 6.47 27.2838 8.36732C25.9839 10.2135 24.9987 12.4417 24.3568 14.9905C23.7313 17.4765 23.4138 20.2916 23.4138 23.3578V37.1519C23.4138 38.0374 24.1523 38.7555 25.0627 38.7555L39.0899 38.7555C40 38.7555 40.7381 38.0369 40.7381 37.1519L40.7381 23.3577C40.7381 22.4721 40.0002 21.7534 39.0899 21.7534H33.9036C34.1449 15.3543 35.8864 12.112 39.09 12.112Z" fill="#BB371A" fill-opacity="0.58"/>
</g>
<defs>
<clipPath id="clip0_523_1618">
<rect width="40.2382" height="39.1507" fill="white" transform="translate(0.500732 0.987793)"/>
</clipPath>
</defs>
</svg>
