<svg width="46" height="26" viewBox="0 0 46 26" fill="none" xmlns="http://www.w3.org/2000/svg">
<path d="M30.0372 25.8394C30.8095 26.1448 31.7047 26.0002 32.3191 25.4698L44.957 14.5412C45.3783 14.1796 45.6153 13.6734 45.6153 13.143C45.6153 12.6127 45.3783 12.1064 44.957 11.7448L32.3191 0.816229C31.7047 0.285872 30.8095 0.141229 30.0372 0.446586C29.2649 0.751943 28.7646 1.45105 28.7646 2.21444V8.00016H3.48865C1.93523 8.00016 0.680206 9.14926 0.680206 10.5716V15.7144C0.680206 17.1368 1.93523 18.2859 3.48865 18.2859H28.7646V24.0716C28.7646 24.843 29.2649 25.5341 30.0372 25.8394Z" fill="#FAF6F2"/>
</svg>
