<svg width="41" height="40" viewBox="0 0 41 40" fill="none" xmlns="http://www.w3.org/2000/svg">
<g clip-path="url(#clip0_523_1615)">
<path d="M23.1846 36.6807L23.1846 30.1477C23.1846 29.2617 23.9228 28.5438 24.8334 28.5438C28.0824 28.5438 29.8497 25.3016 30.0947 18.9024L24.8334 18.9024C23.9228 18.9024 23.1846 18.1838 23.1846 17.2981L23.1846 3.504C23.1846 2.61842 23.9228 1.90041 24.8334 1.90041L38.8611 1.90041C39.7721 1.90041 40.5095 2.61899 40.5095 3.504L40.5095 17.2981C40.5095 20.3657 40.1921 23.1808 39.5663 25.6661C38.9245 28.2143 37.9393 30.4424 36.6389 32.2886C35.3008 34.1859 33.6271 35.6747 31.6638 36.7119C29.6873 37.7554 27.3888 38.2847 24.8328 38.2847C23.9228 38.2847 23.1846 37.5668 23.1846 36.6807ZM1.9203 28.5437C1.01013 28.5437 0.271364 29.2623 0.271364 30.1476L0.271363 36.6806C0.271363 37.5667 1.01001 38.2846 1.9203 38.2846C4.47526 38.2846 6.77409 37.7552 8.74993 36.7118C10.7135 35.6746 12.3882 34.1858 13.7265 32.2884C15.0264 30.4423 16.0116 28.2141 16.6535 25.6653C17.279 23.1793 17.5964 20.3642 17.5964 17.298L17.5964 3.50388C17.5964 2.61831 16.858 1.9003 15.9476 1.9003L1.92042 1.9003C1.01025 1.9003 0.272172 2.61887 0.272172 3.50388L0.272171 17.2981C0.272171 18.1837 1.01013 18.9024 1.92042 18.9024L7.10664 18.9024C6.86538 25.3014 5.12388 28.5437 1.9203 28.5437Z" fill="#BB371A" fill-opacity="0.58"/>
</g>
<defs>
<clipPath id="clip0_523_1615">
<rect width="40.2382" height="39.1507" fill="white" transform="translate(40.5095 39.668) rotate(-180)"/>
</clipPath>
</defs>
</svg>
