<svg width="25" height="30" viewBox="0 0 25 30" fill="none" xmlns="http://www.w3.org/2000/svg">
<path d="M22.7397 0.987305C21.8651 0.987305 15.7429 2.75008 15.7429 10.6826V16.8523C15.7429 18.7969 17.3117 20.3779 19.2413 20.3779H20.9905V27.429C20.9905 28.404 21.7722 29.1917 22.7397 29.1917C23.7072 29.1917 24.4889 28.404 24.4889 27.429V20.3779V14.2081V2.75008C24.4889 1.77505 23.7072 0.987305 22.7397 0.987305ZM3.49841 1.86869C3.49841 1.41698 3.16497 1.04239 2.71674 0.992813C2.2685 0.943235 1.86946 1.2407 1.77107 1.67589L0.114792 9.18422C0.0382639 9.53127 0 9.88382 0 10.2364C0 12.7649 1.91866 14.8416 4.37302 15.0675V27.429C4.37302 28.404 5.15469 29.1917 6.12222 29.1917C7.08975 29.1917 7.87143 28.404 7.87143 27.429V15.0675C10.3258 14.8416 12.2444 12.7649 12.2444 10.2364C12.2444 9.88382 12.2062 9.53127 12.1297 9.18422L10.4734 1.67589C10.375 1.2352 9.96501 0.943235 9.52224 0.992813C9.07947 1.04239 8.74603 1.41698 8.74603 1.86869V9.26134C8.74603 9.55881 8.50552 9.80119 8.21034 9.80119C7.93156 9.80119 7.70197 9.58636 7.67464 9.30541L6.99136 1.79157C6.9531 1.33435 6.57592 0.987305 6.12222 0.987305C5.66852 0.987305 5.29135 1.33435 5.25309 1.79157L4.57527 9.30541C4.54794 9.58636 4.31835 9.80119 4.03957 9.80119C3.7444 9.80119 3.50388 9.55881 3.50388 9.26134V1.86869H3.49841ZM6.13862 10.2419H6.12222H6.10582L6.12222 10.2033L6.13862 10.2419Z" fill="#BB371A"/>
</svg>
