<svg width="24" height="28" viewBox="0 0 24 28" fill="none" xmlns="http://www.w3.org/2000/svg">
<path d="M9.6206 0C8.65308 0 7.8714 0.781677 7.8714 1.74921C7.8714 2.71674 8.65308 3.49841 9.6206 3.49841H10.4952V5.37881C5.04534 6.22061 0.874573 10.9325 0.874573 16.6175C0.874573 22.8982 5.96367 27.9873 12.2444 27.9873C18.5252 27.9873 23.6143 22.8982 23.6143 16.6175C23.6143 14.3326 22.9419 12.2062 21.7831 10.4296L23.1004 9.11227C23.7837 8.42899 23.7837 7.31933 23.1004 6.63605C22.4171 5.95277 21.3075 5.95277 20.6242 6.63605L19.4435 7.81677C17.9075 6.55952 16.0435 5.69585 13.9936 5.37881V3.49841H14.8682C15.8358 3.49841 16.6174 2.71674 16.6174 1.74921C16.6174 0.781677 15.8358 0 14.8682 0H12.2444H9.6206ZM13.5563 10.4952V17.4921C13.5563 18.2191 12.9714 18.804 12.2444 18.804C11.5174 18.804 10.9325 18.2191 10.9325 17.4921V10.4952C10.9325 9.76822 11.5174 9.18333 12.2444 9.18333C12.9714 9.18333 13.5563 9.76822 13.5563 10.4952Z" fill="#BB371A"/>
</svg>
